<?xml version="1.0" encoding="utf-8"?>
<!-- Generator: Adobe Illustrator 15.0.2, SVG Export Plug-In . SVG Version: 6.00 Build 0)  -->
<!DOCTYPE svg PUBLIC "-//W3C//DTD SVG 1.1//EN" "http://www.w3.org/Graphics/SVG/1.1/DTD/svg11.dtd">
<svg version="1.1" id="Layer_1" xmlns="http://www.w3.org/2000/svg" xmlns:xlink="http://www.w3.org/1999/xlink" x="0px" y="0px"
	 width="auto" height="1200px" viewBox="0 0 838.791 300" xml:space="preserve">
<g>
	<path fill="#556652" d="M768.812,140.278c-39.804,0-70.007-31.073-70.007-70.563C698.806,31.073,730.464,0,768.519,0
		c38.634,0,70.271,30.79,70.271,69.715C838.791,109.205,808.597,140.278,768.812,140.278z M768.519,13.066
		c-30.506,0-57.518,24.111-57.518,55.77c0,32.821,24.99,58.377,57.518,58.377c33.105,0,58.087-25.263,58.087-58.377
		C826.605,36.894,799.583,13.066,768.519,13.066z"/>
	<path fill="#556652" d="M608.818,140.278c-39.804,0-70.009-31.073-70.009-70.563C538.81,31.073,570.47,0,608.525,0
		c38.633,0,70.28,30.79,70.28,69.715C678.806,109.205,648.601,140.278,608.818,140.278z M608.525,13.066
		c-30.506,0-57.519,24.111-57.519,55.77c0,32.821,24.99,58.377,57.519,58.377c33.104,0,58.084-25.263,58.084-58.377
		C666.609,36.894,639.589,13.066,608.525,13.066z"/>
	<path fill="#556652" d="M768.812,300c-39.804,0-70.007-31.083-70.007-70.584c0-38.641,31.658-69.704,69.714-69.704
		c38.633,0,70.271,30.78,70.271,69.704C838.791,268.917,808.597,300,768.812,300z M768.519,172.768
		c-30.506,0-57.518,24.121-57.518,55.779c0,32.812,24.99,58.377,57.518,58.377c33.105,0,58.087-25.271,58.087-58.377
		C826.605,196.596,799.583,172.768,768.519,172.768z"/>
	<path fill="#F79646" d="M608.818,300c-39.804,0-70.009-31.083-70.009-70.584c0-38.641,31.66-69.704,69.716-69.704
		c38.633,0,70.28,30.78,70.28,69.704C678.806,268.917,648.601,300,608.818,300z"/>
	<path fill="#556652" d="M13.066,231.154c-0.879,33.982,22.656,56.629,53.739,56.629c20.907,0,37.763-12.479,47.342-30.487l11.045,6.388
		C112.984,286.924,91.491,300,65.057,300C25.263,300,0,267.745,0,229.699c0-37.469,25.849-69.704,65.057-69.704
		c40.663,0,64.773,32.528,64.48,71.159H13.066z M116.461,218.958c-3.184-24.688-23.515-46.767-51.111-46.767
		c-27.304,0-49.959,21.494-52.284,46.767H116.461z"/>
	<path fill="#556652" d="M174.271,297.09h-13.065V57.459h13.065V297.09z"/>
	<path fill="#556652" d="M219.007,231.154c-0.869,33.982,22.655,56.629,53.738,56.629c20.907,0,37.753-12.479,47.342-30.487l11.035,6.388
		C318.915,286.924,297.432,300,270.997,300c-39.794,0-65.066-32.255-65.066-70.301c0-37.469,25.858-69.704,65.066-69.704
		c40.663,0,64.772,32.528,64.479,71.159H219.007z M322.411,218.958c-3.203-24.688-23.534-46.767-51.131-46.767
		c-27.304,0-49.959,21.494-52.273,46.767H322.411z"/>
	<path fill="#556652" d="M380.212,219.827l55.185-56.933h16.855l-56.355,58.094l75.221,76.102H453.99l-66.522-67.098l-7.256,7.549v59.549h-13.075
		V57.459h13.075V219.827L380.212,219.827z"/>
	<path fill="#556652" d="M505.688,297.09h-13.066V175.092h-14.814v-12.195h14.814v-47.93h13.066v47.93h23.532v12.195h-23.532V297.09L505.688,297.09
		z"/>
</g>
</svg>
